<!-- icon666.com - MILLIONS OF FREE VECTOR ICONS --><svg viewBox="-4 0 512 512.08678" xmlns="http://www.w3.org/2000/svg"><path d="m128.996094 477.289062h-120.273438c-4.792968 0-8.6796872 3.882813-8.6796872 8.675782v17.355468c0 4.792969 3.8867192 8.679688 8.6796872 8.679688h485.964844c4.792969 0 8.679688-3.886719 8.679688-8.679688v-17.355468c0-4.792969-3.886719-8.675782-8.679688-8.675782zm0 0" fill="#636c77"></path><path d="m128.996094 477.289062h-120.273438c-4.792968 0-8.6796872 3.882813-8.6796872 8.675782v17.355468c0 4.792969 3.8867192 8.679688 8.6796872 8.679688h485.964844c4.792969 0 8.679688-3.886719 8.679688-8.679688v-17.355468c0-4.792969-3.886719-8.675782-8.679688-8.675782zm0 0" fill="#636c77"></path><path d="m486.007812 268.957031c0 129.402344-104.898437 234.304688-234.304687 234.304688-129.402344 0-234.304687-104.902344-234.304687-234.304688 0-129.402343 104.902343-234.304687 234.304687-234.304687 129.40625 0 234.304687 104.902344 234.304687 234.304687zm0 0" fill="#b3a4ee"></path><path d="m313.058594 458.71875c-40.03125 13.105469-83.199219 13.105469-123.226563 0l45.730469-140.238281 16.140625-49.464844 15.96875 49.464844zm0 0" fill="#eb86be"></path><path d="m251.703125 268.929688v.085937l-16.140625 49.464844-45.730469 140.238281c-40.105469-13.015625-75.007812-38.492188-99.625-72.722656l119.410157-86.519532 42-30.546874zm0 0" fill="#9579da"></path><path d="m251.617188 268.929688-42 30.546874-119.410157 86.519532c-24.75-34.082032-38.085937-75.117188-38.097656-117.238282l147.441406.171876zm0 0" fill="#5e9cea"></path><path d="m251.617188 268.929688h-52.066407l-147.441406-.171876c0-42.179687 13.402344-83.265624 38.273437-117.328124l119.234376 86.78125zm0 0" fill="#73b0f4"></path><path d="m273.574219 70.636719c13.59375 1.480469 27 4.359375 40.003906 8.59375l-45.734375 140.234375-16.140625 49.464844-15.964844-49.464844-45.472656-140.320313c12.859375-4.195312 26.121094-7.042969 39.570313-8.507812zm0 0" fill="#f4f6f8"></path><path d="m413.203125 151.863281-119.410156 86.519531-42.089844 30.546876 16.140625-49.464844 45.734375-140.234375c40.082031 13.011719 74.976563 38.453125 99.625 72.632812zm0 0" fill="#ffd67b"></path><path d="m451.296875 269.105469-147.4375-.089844h-52.15625v-.085937l42.089844-30.546876 119.410156-86.519531c24.6875 34.113281 38.015625 75.132813 38.09375 117.242188zm0 0" fill="#f5b945"></path><path d="m451.296875 269.105469c.003906 42.175781-13.398437 83.261719-38.269531 117.324219l-119.234375-86.78125-42-30.632813h52.066406zm0 0" fill="#fa6c51"></path><path d="m413.027344 386.429688c-24.878906 34.023437-59.867188 59.320312-99.96875 72.289062l-45.386719-140.238281-15.96875-49.464844h.089844l42 30.632813zm0 0" fill="#eb5463"></path><path d="m251.703125 268.929688h-.085937l-42-30.71875-119.234376-86.78125c24.828126-34.035157 59.789063-59.339844 99.882813-72.285157l45.472656 140.320313zm0 0" fill="#66d4f1"></path><g fill="#5e9cea"><path d="m313.144531 458.890625-.085937-.171875"></path><path d="m90.207031 385.996094-.085937.085937"></path><path d="m413.289062 151.777344-.085937.085937"></path></g><path d="m303.773438 268.957031c0 28.753907-23.3125 52.066407-52.070313 52.066407-28.753906 0-52.066406-23.3125-52.066406-52.066407 0-28.757812 23.3125-52.070312 52.066406-52.070312 28.757813 0 52.070313 23.3125 52.070313 52.070312zm0 0" fill="#f4f6f8"></path><path d="m302.816406 12.929688-8.503906 16.835937-8.242188 16.140625-12.496093 24.730469-14.667969 28.898437c-1.289062 2.816406-4.105469 4.625-7.203125 4.625s-5.910156-1.808594-7.203125-4.625l-14.664062-28.898437-12.582032-24.730469-8.246094-16.3125-8.417968-16.664062c-1.417969-2.652344-1.386719-5.847657.09375-8.46875 1.476562-2.621094 4.191406-4.304688 7.195312-4.460938h87.648438c3.003906.15625 5.722656 1.839844 7.199218 4.460938 1.476563 2.621093 1.511719 5.816406.089844 8.46875zm0 0" fill="#fdcd56"></path><path d="m503.367188 485.964844v17.355468c0 4.792969-3.886719 8.679688-8.679688 8.679688h-17.09375c2.265625-.03125 4.429688-.964844 6.007812-2.59375 1.578126-1.628906 2.445313-3.816406 2.40625-6.085938v-17.355468c.039063-2.265625-.828124-4.457032-2.40625-6.082032-1.578124-1.628906-3.742187-2.5625-6.007812-2.59375h17.09375c4.792969 0 8.679688 3.882813 8.679688 8.675782zm0 0" fill="#565f68"></path><path d="m413.027344 386.429688c-24.878906 34.023437-59.867188 59.320312-99.96875 72.289062l-1.824219-5.640625c36.941406-15.390625 68.390625-41.546875 90.25-75.066406zm0 0" fill="#d94452"></path><path d="m313.058594 458.71875c-22.328125 7.304688-45.777344 10.566406-69.25 9.632812 23.199218-1.074218 46.027344-6.242187 67.425781-15.273437zm0 0" fill="#d56fac"></path><path d="m313.578125 79.230469-1.910156 5.726562c-5.03125-2.082031-10.152344-3.992187-15.445313-5.726562-12.867187-4.191407-26.125-7.070313-39.570312-8.59375h16.921875c13.59375 1.480469 27 4.359375 40.003906 8.59375zm0 0" fill="#cad0d7"></path><path d="m413.203125 151.863281-11.542969 8.417969c-21.746094-33.582031-53.105468-59.828125-89.992187-75.324219l1.910156-5.726562c40.082031 13.011719 74.976563 38.453125 99.625 72.632812zm0 0" fill="#f5b945"></path><path d="m451.296875 269.105469h-17.355469c0-38.636719-11.214844-76.4375-32.28125-108.824219l11.542969-8.417969c24.6875 34.113281 38.015625 75.132813 38.09375 117.242188zm0 0" fill="#edae3e"></path><path d="m451.296875 269.105469c.003906 42.175781-13.398437 83.261719-38.269531 117.324219l-11.542969-8.417969c21.082031-32.421875 32.351563-70.238281 32.457031-108.90625zm0 0" fill="#e85841"></path><path d="m302.816406 12.929688-8.503906 16.835937-8.242188 16.140625-12.496093 24.730469-14.667969 28.898437c-1.289062 2.816406-4.105469 4.625-7.203125 4.625s-5.910156-1.808594-7.203125-4.625l-1.472656-2.863281 13.191406-26.035156 12.496094-24.730469 8.242187-16.140625 8.503907-16.835937c1.421874-2.652344 1.386718-5.847657-.089844-8.46875-1.476563-2.621094-4.195313-4.304688-7.199219-4.460938h17.355469c3.003906.15625 5.722656 1.839844 7.199218 4.460938 1.476563 2.621093 1.511719 5.816406.089844 8.46875zm0 0" fill="#f5b945"></path><path d="m236.242188 285.503906c-3.277344.007813-6.277344-1.832031-7.761719-4.753906-4.105469-8.074219-3.71875-17.699219 1.019531-25.421875 4.738281-7.71875 13.148438-12.421875 22.203125-12.414063 4.792969 0 8.679687 3.886719 8.679687 8.675782 0 4.792968-3.886718 8.679687-8.679687 8.679687-3.757813.011719-7.082031 2.4375-8.234375 6.015625-.734375 2.183594-.550781 4.574219.511719 6.621094 1.359375 2.6875 1.226562 5.886719-.351563 8.453125-1.574218 2.566406-4.367187 4.132813-7.378906 4.136719zm0 0" fill="#fff"></path><path d="m482.710938 344.253906c-32.566407 99.929688-125.644532 167.632813-230.746094 167.832032-25.675782-.050782-51.1875-4.148438-75.585938-12.148438-105.789062-34.695312-174.5-136.808594-166.796875-247.875 7.707031-111.066406 89.859375-202.714844 199.425781-222.46875l8.246094 16.3125c-103.261718 15.90625-182.09375 100.621094-190.542968 204.753906-8.445313 104.136719 55.703124 200.449219 155.050781 232.789063 86.765625 28.300781 182.035156 1.542969 241.378906-67.792969 59.347656-69.335938 71.074219-167.59375 29.71875-248.953125-32.945313-64.738281-95.007813-109.683594-166.789063-120.796875l8.242188-16.140625c11.089844 1.929687 22.023438 4.65625 32.714844 8.15625 127.558594 41.632813 197.246094 178.753906 155.683594 306.332031zm0 0" fill="#9579da"></path><path d="m251.703125 329.703125c-26.316406-.019531-49.628906-16.984375-57.742187-42.019531-8.113282-25.039063.816406-52.453125 22.121093-67.902344 21.308594-15.453125 50.140625-15.425781 71.417969.066406 21.277344 15.488282 30.160156 42.917969 22 67.941406-8.097656 25.054688-31.464844 42-57.796875 41.914063zm0-104.136719c-22.660156-.015625-41.527344 17.394532-43.332031 39.984375-1.800782 22.589844 14.0625 42.773438 36.441406 46.355469 22.378906 3.578125 43.75-10.644531 49.085938-32.667969 5.335937-22.027343-7.15625-44.453125-28.691407-51.511719-4.355469-1.4375-8.914062-2.171874-13.503906-2.175781zm0 0" fill="#cad0d7"></path></svg>