<svg width="13" height="13" viewBox="0 0 13 13" fill="none" xmlns="http://www.w3.org/2000/svg">
<path d="M10.1654 7.98686L12.7722 5.64187C13.2108 5.24787 12.9775 4.49603 12.401 4.44665L8.9745 4.15285C8.85553 4.14274 8.74152 4.09856 8.64496 4.02515C8.54841 3.95173 8.47304 3.85193 8.42713 3.73667L7.10079 0.418685C6.87774 -0.139562 6.12237 -0.139562 5.89932 0.418685L4.57297 3.73667C4.52706 3.85193 4.4517 3.95173 4.35514 4.02515C4.25859 4.09856 4.14458 4.14274 4.0256 4.15285L0.59873 4.44665C0.0226236 4.49603 -0.210693 5.24787 0.227545 5.64187L1.81081 7.06611C1.95679 7.19767 2.12712 7.29636 2.31117 7.35602C2.49522 7.41568 2.68906 7.43503 2.88057 7.41287L6.42547 7.00671C6.71695 6.97343 6.83771 7.38603 6.5784 7.52917L3.39647 9.28622C3.21887 9.38404 3.06341 9.5206 2.94059 9.68667C2.81777 9.85273 2.73046 10.0444 2.68455 10.2488L2.25213 12.1598C2.11905 12.7481 2.73039 13.2129 3.22405 12.8987L6.16171 11.0297C6.36937 10.8973 6.6304 10.8973 6.8384 11.0297L9.77572 12.8987C10.2697 13.2129 10.8807 12.7484 10.748 12.1598L9.95635 8.65998C9.92875 8.53852 9.93366 8.41146 9.97053 8.29273C10.0074 8.17399 10.0748 8.06817 10.1654 7.98686Z" fill="#FFCD1D"/>
</svg>
