<svg width="32" height="32" viewBox="0 0 32 32" fill="none" xmlns="http://www.w3.org/2000/svg">
<rect width="32" height="32" rx="16" fill="#0098EA"/>
<path d="M24.6804 12.3393L17.2701 24.519C17.1337 24.742 16.9198 24.9026 16.6722 24.9679C16.4247 25.0332 16.1623 24.9981 15.939 24.8699C15.7909 24.7843 15.6659 24.6619 15.5752 24.5138L8.31025 12.334C8.10671 11.9927 7.99928 11.5996 8 11.1988C8.00918 10.607 8.24541 10.0432 8.65686 9.63105C9.06831 9.21888 9.62138 8.99201 10.1947 9.00022H22.8155C24.02 9.00022 25 9.98105 25 11.1935C25 11.5971 24.8895 11.9936 24.6796 12.3393M10.0936 11.9322L15.4996 20.5343V11.0645H10.6588C10.0995 11.0645 9.84875 11.447 10.0944 11.9322M17.4996 20.5343L22.9056 11.9322C23.1546 11.447 22.8997 11.0645 22.3404 11.0645H17.4996V20.5343Z" fill="white"/>
</svg>
